<svg width="290" height="192" viewBox="0 0 290 192" fill="none" xmlns="http://www.w3.org/2000/svg">
<g clip-path="url(#clip0_5467_41343)">
<mask id="mask0_5467_41343" style="mask-type:luminance" maskUnits="userSpaceOnUse" x="79" y="48" width="155" height="97">
<path d="M79.2812 144.164H233.022V48.1658H79.2812V144.164Z" fill="white"></path>
</mask>
<g mask="url(#mask0_5467_41343)">
<mask id="mask1_5467_41343" style="mask-type:luminance" maskUnits="userSpaceOnUse" x="84" y="71" width="111" height="51">
<path d="M84.0078 121.297H194.816V71.0031H84.0078V121.297Z" fill="white"></path>
</mask>
<g mask="url(#mask1_5467_41343)">
<path d="M180.834 116.915V115.739H181.697C182.272 115.739 182.427 115.916 182.427 116.26C182.427 116.612 182.272 116.896 181.595 116.915H180.834ZM181.44 117.632C181.688 117.654 181.927 117.632 182.107 117.821C182.313 118.039 182.313 118.405 182.365 118.8C182.397 119.07 182.47 119.362 182.521 119.622H183.438C183.281 119.207 183.229 118.727 183.167 118.29C183.093 117.791 183.022 117.51 182.386 117.384V117.362C183.002 117.237 183.324 116.822 183.324 116.29C183.324 115.25 182.448 115.021 181.606 115.021H180.116V119.622H180.834V117.632H181.44ZM181.667 121.297C183.835 121.297 185.572 119.551 185.572 117.373C185.572 115.217 183.835 113.469 181.667 113.469C179.491 113.469 177.742 115.217 177.742 117.373C177.742 119.551 179.491 121.297 181.667 121.297ZM181.667 120.612C179.877 120.612 178.431 119.163 178.431 117.373C178.431 115.605 179.877 114.156 181.667 114.156C183.449 114.156 184.887 115.605 184.887 117.373C184.887 119.163 183.449 120.612 181.667 120.612Z" fill="#858E97"></path>
<path d="M175.051 81.7832H168.763V88.0644H175.051C176.544 88.0644 177.744 89.28 177.744 90.7637C177.744 92.2577 176.544 93.4582 175.051 93.4582H168.763V99.7449H175.051C180.013 99.7449 184.033 95.7217 184.033 90.7637C184.033 85.8044 180.013 81.7832 175.051 81.7832ZM139.217 115.021C146.743 115.021 153.23 110.613 156.261 104.233H164.276V115.021H168.763V104.233H175.051C182.496 104.233 188.528 98.202 188.528 90.7637C188.528 83.3236 182.496 77.2898 175.051 77.2898H164.276V93.4582H157.881C156.577 84.3208 148.717 77.2898 139.217 77.2898H117.104L95.1078 115.021H100.355L106.642 104.233H129.246V115.021H139.217ZM194.816 90.7637C194.816 101.675 185.966 110.52 175.051 110.52V121.297H157.991V112.89C153.375 118.05 146.681 121.297 139.217 121.297H122.958V110.52H110.251L103.964 121.297H84.0078L113.342 71.0031H139.217C146.681 71.0031 153.375 74.2591 157.991 79.4195V71.0031H175.051C185.966 71.0031 194.816 79.8548 194.816 90.7637ZM122.958 81.7832V93.4582H112.928L109.265 99.7449H129.246V81.7832H122.958ZM153.591 96.15C153.591 104.087 147.153 110.52 139.217 110.52H133.736V104.233H139.217C143.685 104.233 147.305 100.619 147.305 96.15C147.305 91.6901 143.685 88.0644 139.217 88.0644H133.736V81.7832H139.217C147.153 81.7832 153.591 88.2159 153.591 96.15Z" fill="#858E97"></path>
<path d="M175.051 81.7832H168.763V88.0644H175.051C176.544 88.0644 177.744 89.28 177.744 90.7637C177.744 92.2577 176.544 93.4582 175.051 93.4582H168.763V99.7449H175.051C180.013 99.7449 184.033 95.7217 184.033 90.7637C184.033 85.8044 180.013 81.7832 175.051 81.7832ZM139.217 115.021C146.743 115.021 153.23 110.613 156.261 104.233H164.276V115.021H168.763V104.233H175.051C182.496 104.233 188.528 98.202 188.528 90.7637C188.528 83.3236 182.496 77.2898 175.051 77.2898H164.276V93.4582H157.881C156.577 84.3208 148.717 77.2898 139.217 77.2898H117.104L95.1078 115.021H100.355L106.642 104.233H129.246V115.021H139.217ZM194.816 90.7637C194.816 101.675 185.966 110.52 175.051 110.52V121.297H157.991V112.89C153.375 118.05 146.681 121.297 139.217 121.297H122.958V110.52H110.251L103.964 121.297H84.0078L113.342 71.0031H139.217C146.681 71.0031 153.375 74.2591 157.991 79.4195V71.0031H175.051C185.966 71.0031 194.816 79.8548 194.816 90.7637ZM122.958 81.7832V93.4582H112.928L109.265 99.7449H129.246V81.7832H122.958ZM153.591 96.15C153.591 104.087 147.153 110.52 139.217 110.52H133.736V104.233H139.217C143.685 104.233 147.305 100.619 147.305 96.15C147.305 91.6901 143.685 88.0644 139.217 88.0644H133.736V81.7832H139.217C147.153 81.7832 153.591 88.2159 153.591 96.15Z" fill="#858E97"></path>
<path d="M175.051 81.7832H168.763V88.0644H175.051C176.544 88.0644 177.744 89.28 177.744 90.7637C177.744 92.2577 176.544 93.4582 175.051 93.4582H168.763V99.7449H175.051C180.013 99.7449 184.033 95.7217 184.033 90.7637C184.033 85.8044 180.013 81.7832 175.051 81.7832ZM139.217 115.021C146.743 115.021 153.23 110.613 156.261 104.233H164.276V115.021H168.763V104.233H175.051C182.496 104.233 188.528 98.202 188.528 90.7637C188.528 83.3236 182.496 77.2898 175.051 77.2898H164.276V93.4582H157.881C156.577 84.3208 148.717 77.2898 139.217 77.2898H117.104L95.1078 115.021H100.355L106.642 104.233H129.246V115.021H139.217ZM194.816 90.7637C194.816 101.675 185.966 110.52 175.051 110.52V121.297H157.991V112.89C153.375 118.05 146.681 121.297 139.217 121.297H122.958V110.52H110.251L103.964 121.297H84.0078L113.342 71.0031H139.217C146.681 71.0031 153.375 74.2591 157.991 79.4195V71.0031H175.051C185.966 71.0031 194.816 79.8548 194.816 90.7637ZM122.958 81.7832V93.4582H112.928L109.265 99.7449H129.246V81.7832H122.958ZM153.591 96.15C153.591 104.087 147.153 110.52 139.217 110.52H133.736V104.233H139.217C143.685 104.233 147.305 100.619 147.305 96.15C147.305 91.6901 143.685 88.0644 139.217 88.0644H133.736V81.7832H139.217C147.153 81.7832 153.591 88.2159 153.591 96.15Z" fill="#858E97"></path>
</g>
</g>
</g>
<defs>
<clipPath id="clip0_5467_41343">
<rect width="110.808" height="50.2938" fill="white" transform="translate(84 71)"></rect>
</clipPath>
</defs>
</svg>
