<svg width="175" height="120" viewBox="0 0 175 120" fill="none" xmlns="http://www.w3.org/2000/svg">
<rect width="175" height="120" fill="#17191F"></rect>
<path d="M103.963 53.0727C103.706 53.2716 99.1628 55.8228 99.1628 61.4955C99.1628 68.0569 104.943 70.3781 105.116 70.4356C105.09 70.5771 104.198 73.6146 102.069 76.7096C100.17 79.4332 98.1868 82.1524 95.1701 82.1524C92.1533 82.1524 91.377 80.4059 87.8944 80.4059C84.5006 80.4059 83.2939 82.2099 80.5345 82.2099C77.7751 82.2099 75.8497 79.6897 73.636 76.5947C71.0718 72.9602 69 67.3141 69 61.9553C69 53.36 74.6076 48.8016 80.1264 48.8016C83.0588 48.8016 85.5032 50.7205 87.3443 50.7205C89.0967 50.7205 91.8295 48.6866 95.1656 48.6866C96.43 48.6866 100.973 48.8016 103.963 53.0727ZM93.5818 45.0478C94.9616 43.4163 95.9376 41.1525 95.9376 38.8887C95.9376 38.5748 95.9109 38.2564 95.8533 38C93.6085 38.084 90.9378 39.49 89.3274 41.3514C88.063 42.784 86.8829 45.0478 86.8829 47.3425C86.8829 47.6874 86.9406 48.0322 86.9672 48.1428C87.1092 48.1693 87.3399 48.2002 87.5706 48.2002C89.5847 48.2002 92.1178 46.8561 93.5818 45.0478Z" fill="white"></path>
</svg>
