<svg width="175" height="120" viewBox="0 0 175 120" fill="none" xmlns="http://www.w3.org/2000/svg">
<rect width="175" height="120" fill="#17191F"></rect>
<path d="M26.4822 59.1568C26.936 56.8955 28.9214 55.3125 31.7576 55.3125C35.0477 55.3125 37.572 56.6693 37.572 61.1073V69.3048H34.7924L34.4521 67.5522C33.4878 68.7394 32.1831 69.5309 30.1977 69.5309C27.8436 69.5309 26 68.061 26 65.3474C26 62.6337 28.4392 60.8529 31.8994 60.8529H34.1968V60.231C34.1968 58.6763 33.034 58.1958 31.7576 58.1958C30.7933 58.1958 29.8006 58.5067 29.3752 59.7787L26.4822 59.1568ZM30.9635 66.6477C32.5234 66.6477 34.1401 65.6018 34.1401 63.8209V63.5665H31.8711C30.3962 63.51 29.517 64.1036 29.517 65.2908C29.5453 65.941 30.0275 66.6477 30.9635 66.6477Z" fill="white"></path>
<path d="M92.8259 59.1568C93.2797 56.8955 95.2651 55.3125 98.1014 55.3125C101.391 55.3125 103.916 56.6693 103.916 61.1073V69.3048H101.136L100.796 67.5522C99.8315 68.7394 98.5268 69.5309 96.5414 69.5309C94.1873 69.5309 92.3438 68.061 92.3438 65.3474C92.3438 62.6337 94.7829 60.8529 98.2432 60.8529H100.541V60.231C100.541 58.6763 99.3777 58.1958 98.1014 58.1958C97.137 58.1958 96.1444 58.5067 95.7189 59.7787L92.8259 59.1568ZM97.3072 66.6477C98.8672 66.6477 100.484 65.6018 100.484 63.8209V63.5665H98.2148C96.74 63.5665 95.8607 64.1036 95.8607 65.3191C95.8891 65.941 96.3713 66.6477 97.3072 66.6477Z" fill="white"></path>
<path d="M107.008 69.3331V55.5104H110.411V57.7718C111.376 56.1322 112.936 55.3125 114.496 55.3125C115.12 55.3125 115.602 55.3973 116.169 55.5669L115.545 58.7046C115.148 58.4502 114.694 58.3088 114.127 58.3088C112.141 58.3088 110.411 59.9483 110.411 64.3863V69.2765L107.008 69.3331Z" fill="white"></path>
<path d="M123.422 55.3142C124.84 55.3142 126.173 56.0209 126.797 56.7841V50H130.2V69.3631H126.797V67.9497C126.4 68.6564 125.152 69.5892 123.422 69.5892C119.252 69.5892 117.125 66.7342 117.125 62.4941C117.125 58.2258 119.252 55.3142 123.422 55.3142ZM123.904 66.6494C125.662 66.6494 127.08 65.1795 127.08 62.4659C127.08 59.7239 125.662 58.2823 123.904 58.2823C122.145 58.2823 120.727 59.7522 120.727 62.4659C120.699 65.2078 122.117 66.6494 123.904 66.6494Z" fill="white"></path>
<path d="M142.513 57.5228L140.47 59.3884C139.846 58.5404 138.91 58.2012 138.173 58.2012C137.521 58.2012 136.897 58.597 136.897 59.3602C136.897 59.9821 137.379 60.4061 138.23 60.6887C140.13 61.3954 143.222 61.9608 143.222 64.9288C143.222 67.4446 141.321 69.5081 138.315 69.5081C135.45 69.5081 133.493 67.4729 132.812 65.8051L135.507 64.3352C135.989 65.6638 136.925 66.6249 138.287 66.6249C139.336 66.6249 140.017 66.1443 140.017 65.1267C140.017 63.9677 138.258 63.7133 136.556 63.0067C135.053 62.3848 133.777 61.4237 133.777 59.3036C133.777 57.1836 135.507 55.2897 138.201 55.2897C140.017 55.2614 141.662 56.1942 142.513 57.5228Z" fill="white"></path>
<path d="M71.5808 55.5391L69.1416 65.0086L66.7875 55.5391H63.6109L61.2851 65.0086L59.3565 59.4965L59.1296 60.1749L58.0234 63.7083L59.7819 69.3335H62.8167L65.1992 60.4293L67.5817 69.3335H70.5881L75.0127 55.5391H71.5808Z" fill="white"></path>
<path d="M88.031 55.5391L85.5635 65.0086L83.2094 55.5391H80.0328L77.7354 65.0086L75.7784 59.4965L75.5515 60.1749L74.4453 63.7083L76.2322 69.3335H79.2386L81.6211 60.4293L84.0035 69.3335H87.01L91.4629 55.5391H88.031Z" fill="white"></path>
<path d="M58.5879 55.5391L54.1633 69.3052H51.1569L48.7744 60.401L46.392 69.3618H43.3855L38.9609 55.5956H42.4212L44.8887 65.0369L47.2428 55.5956H50.3911L52.7452 65.0369L55.2128 55.5956L58.5879 55.5391Z" fill="white"></path>
<path d="M147.649 64.8984C148.982 64.8984 149.946 65.8595 149.946 67.1881C149.946 68.5166 148.982 69.4777 147.649 69.4777C146.316 69.4777 145.352 68.5166 145.352 67.1881C145.352 65.8595 146.344 64.8984 147.649 64.8984Z" fill="white"></path>
</svg>
