<svg width="186" height="120" viewBox="0 0 186 120" fill="none" xmlns="http://www.w3.org/2000/svg">
  <rect width="175" height="120" fill="#17191F"></rect>
  <path d="M81.341 63.1139L84.6589 63.0836L84.6747 65.2002C84.6747 74.794 82.1922 79.9889 75.3483 79.6171C68.3198 79.234 64.9094 73.6476 65.0018 60.2149C65.0414 54.0525 65.5948 49.2735 67.6187 45.7734C69.5848 42.3725 72.6787 41 76.2914 41C78.9716 41 80.9771 42.0445 82.6189 43.8635C84.2608 45.7541 85.2068 48.4935 84.2423 51.4063C83.6177 53.2969 83.37 54.0741 82.1893 55.1049C81.5806 55.634 80.4816 55.86 79.8676 55.8076C79.0111 55.736 76.6103 54.9477 76.4442 51.9576C76.3731 50.7009 76.4864 50.1304 77.0767 49.1685C77.7039 48.1461 78.7449 47.9587 79.6198 47.9587C79.8175 47.9587 80.8558 48.0386 81.4778 48.8737C81.4778 48.8737 81.7387 49.119 82.0259 49.7005C82.0971 49.841 82.1893 50.1277 82.3659 50.1662C82.3264 50.158 82.4924 50.3123 82.5135 49.5902C82.5266 49.1355 82.3817 48.5678 82.3659 48.5044C81.6965 45.6767 79.6541 44.3456 77.2822 44.4227C75.477 44.4833 73.3397 45.718 72.5728 47.6775C71.8613 49.7087 71.4633 54.0081 71.4633 59.0514C71.4633 64.7922 71.4423 69.2542 72.0458 71.3566C72.5939 73.4567 73.6428 75.9702 76.5786 76.0198C79.3642 76.0667 81.2959 73.9004 81.3249 65.1835L81.341 63.1139Z" fill="white"></path>
  <path d="M89.981 45.0131C88.1548 45.7076 87.3062 47.8352 87.2007 48.0888C87.0979 48.3423 86.9925 48.9349 86.9925 49.1388C86.9925 49.6845 87.2086 49.8995 87.1875 49.9463C87.6171 49.0121 88.326 48.0419 89.6279 47.827C90.6241 47.6616 91.1828 47.8022 91.7915 48.2652C92.0867 48.4884 92.3898 48.7502 92.5953 49.092C92.9643 49.7038 93.1092 50.131 93.1092 51.0901C93.1092 52.4212 92.8852 53.3059 92.063 54.287C91.188 55.2681 90.4027 55.6484 89.2536 55.6208C87.9307 55.5878 87.2376 55.1468 86.2019 54.1051C85.1689 53.0605 84.7208 51.6716 84.6496 49.9738C84.5258 47.0828 85.5826 44.9193 87.6223 43.1472C89.7016 41.3393 92.171 41.0637 95.2277 41.0471C98.7934 41.0279 101.173 42.0531 103.1 44.7567C103.679 45.5724 103.969 46.3717 104.328 47.4273C104.625 48.3009 104.699 49.6872 104.699 51.9278L104.639 70.8918C104.639 72.923 104.212 75.8582 106.004 75.8692C106.607 75.8719 107.764 75.8637 107.717 72.9808L107.688 67.0086L110.096 67.0527L110.133 70.7154C110.257 76.1502 109.619 79.5762 104.109 79.6447C101.347 79.6805 99.0964 78.432 98.2742 74.8603C96.3583 78.4321 94.1235 79.6668 91.2774 79.6668C89.0874 79.6668 86.5021 78.5203 85.079 76.7674C83.6532 75.0174 83.7139 72.5232 83.7745 69.8609C83.872 65.4155 85.9829 62.7287 89.4405 60.5563L93.5042 57.9629C96.5692 56.2101 98.3269 53.4183 98.3269 50.5464C98.3269 48.8652 97.8736 47.4597 96.996 46.4096C96.1211 45.3596 93.8362 43.6757 90.1705 44.9407M98.1375 58.0043C95.7314 60.606 92.988 63.1884 91.9918 64.3349C90.9667 65.5145 89.8545 67.6669 89.6516 69.0504C88.8557 74.4824 91.1617 75.866 92.8061 75.8687C97.2678 75.877 98.3193 69.9213 98.2455 64.547L98.1375 58.0043Z" fill="white"></path>
</svg>