<svg width="290" height="192" viewBox="0 0 290 192" fill="none" xmlns="http://www.w3.org/2000/svg">
<g clip-path="url(#clip0_5467_41289)">
<mask id="mask0_5467_41289" style="mask-type:luminance" maskUnits="userSpaceOnUse" x="39" y="77" width="216" height="32">
<path d="M254.348 77H39V108.264H254.348V77Z" fill="white"></path>
</mask>
<g mask="url(#mask0_5467_41289)">
<mask id="mask1_5467_41289" style="mask-type:luminance" maskUnits="userSpaceOnUse" x="39" y="77" width="216" height="32">
<path d="M39 77V108.264H254.348V77H39Z" fill="white"></path>
</mask>
<g mask="url(#mask1_5467_41289)">
<path d="M124.247 81.2242V101.968C124.247 106.083 126.808 108.26 130.581 108.26C132.384 108.26 133.979 107.791 134.359 107.669V104.268C134.024 104.369 132.937 104.694 131.462 104.694C129.255 104.694 128.246 103.319 128.246 101.513V89.7555H133.797V86.387H128.246V84.1853C128.246 82.0794 126.991 81.0104 125.393 81.0104C125.014 81.0104 124.626 81.0837 124.247 81.2242ZM204.667 89.2023V89.1129C204.667 87.007 203.551 85.9381 201.953 85.9381C201.574 85.9381 201.186 86.0113 200.806 86.1519V107.811H204.804V92.9893C205.993 91.3798 208.399 89.5004 210.51 89.5004C212.845 89.5004 214.011 91.0131 214.011 93.2139V107.811H218.009V92.9893C219.387 91.1267 221.604 89.5004 223.715 89.5004C226.05 89.5004 227.216 91.0131 227.216 93.2139V107.811H231.213V92.9896C231.213 88.9537 229.388 85.9378 224.445 85.9378C221.436 85.9378 219.21 87.5519 217.408 89.5181C216.803 88.0756 215.439 85.9378 211.228 85.9378C208.374 85.9378 206.276 87.4516 204.667 89.2023ZM190.702 89.1129C190.702 87.007 189.517 85.9381 187.919 85.9381C187.541 85.9381 187.152 86.0113 186.773 86.1519V107.811H190.77V95.1455C191.904 92.4562 194.589 89.9752 198.136 89.9752V85.9378C194.345 85.9378 192.174 87.7706 190.702 90.4912V89.1129ZM63.501 89.1129C63.501 87.007 62.3167 85.9381 60.7181 85.9381C60.3395 85.9381 59.9514 86.0113 59.5722 86.1519V107.811H63.5693V95.1455C64.7037 92.4562 67.388 89.9752 70.9354 89.9752V85.9378C67.1441 85.9378 64.9733 87.7706 63.501 90.4912V89.1129ZM156.263 96.879C158.857 93.9682 161.154 90.4806 162.791 86.2235L159.097 84.8732C156.74 91.0627 153.22 95.2193 148.966 98.6632V77.5061H144.969V107.811H148.966V103.338C150.506 102.242 151.893 101.125 153.385 99.751L157.034 105.924C157.946 107.459 159.159 108.259 160.977 108.259C162 108.259 162.605 107.932 162.83 107.811L156.263 96.879ZM43.1802 97.0767C43.1802 92.091 45.7776 89.5011 49.7104 89.5011C52.6932 89.5011 54.6523 90.619 55.276 91.019C55.7659 90.5536 56.1581 89.7418 56.1581 88.8938C56.1581 87.4755 54.4826 85.9381 49.5503 85.9381C43.7992 85.9381 39 89.8005 39 97.1217C39 104.263 43.3601 108.26 49.1091 108.26C52.5616 108.26 55.3101 107.155 56.1128 106.74V102.768C55.2372 103.368 52.4152 104.694 49.7691 104.694C45.996 104.694 43.1802 102.111 43.1802 97.0767ZM106.494 90.6988C106.005 90.4052 104.261 89.5011 102.048 89.5011C98.3535 89.5011 95.8197 92.0653 95.8197 97.3649C95.8197 102.081 98.1893 104.69 103.278 104.69C104.451 104.69 105.564 104.51 106.494 104.231V90.6988ZM110.444 107.174C109.608 107.389 107.05 108.264 103.278 108.264C95.0312 108.264 91.8487 103.662 91.8487 97.4791C91.8487 89.664 96.2932 85.9309 101.327 85.9309C104.114 85.9309 105.986 86.7985 106.494 87.0607V77.5061H110.444V107.174ZM75.2999 95.7449C75.4721 92.5927 77.5104 89.363 81.9363 89.363C83.9128 89.363 85.1021 90.4909 85.1021 91.8571C85.1021 94.9118 79.522 95.7449 75.2999 95.7449ZM75.3272 98.8459C81.2766 98.8459 89.1504 97.9461 89.1504 91.6628C89.1504 88.5215 86.5313 85.9374 82.1349 85.9374C74.7138 85.9374 71.1418 91.1518 71.1418 97.4344C71.1418 103.458 75.03 108.26 81.9667 108.26C85.8273 108.26 88.7114 107.21 88.7114 105.017C88.7114 103.99 88.0489 103.171 87.9018 103.025C87.5205 103.279 85.4313 104.694 82.2066 104.694C77.6649 104.694 75.7883 101.754 75.3272 98.8459ZM115.324 107.811V86.387H119.322V107.811H115.324ZM117.345 82.0753C115.953 82.0753 114.785 80.9524 114.785 79.5602C114.785 78.1676 115.953 77 117.345 77C118.738 77 119.861 78.1676 119.861 79.5602C119.861 80.9524 118.738 82.0753 117.345 82.0753ZM247.996 101.927C246.199 103.769 244.378 104.699 242.042 104.699C239.776 104.699 238.586 103.251 238.586 101.731C238.586 99.5301 240.341 97.6808 247.996 96.9417V101.927ZM243.345 85.9378C238.237 85.9378 236.245 87.312 236.245 88.891C236.245 90.09 236.946 90.8309 237.13 91.0112C237.801 90.579 239.706 89.4933 242.774 89.4933C246.633 89.4933 247.996 91.3209 247.996 93.2946V93.8876C239.058 94.8308 234.477 96.5175 234.477 101.863C234.477 105.501 237.2 108.26 241.063 108.26C244.93 108.26 247.117 106.245 248.092 105.358V107.811H251.994V93.1631C251.994 88.402 248.555 85.9378 243.345 85.9378ZM177.852 101.927C176.055 103.769 174.234 104.699 171.898 104.699C169.632 104.699 168.443 103.251 168.443 101.731C168.443 99.5301 170.197 97.6808 177.852 96.9417V101.927ZM173.201 85.9378C168.093 85.9378 166.101 87.312 166.101 88.891C166.101 90.09 166.801 90.8309 166.986 91.0112C167.657 90.579 169.562 89.4933 172.629 89.4933C176.489 89.4933 177.852 91.3209 177.852 93.2946V93.8876C168.914 94.8308 164.332 96.5175 164.332 101.863C164.332 105.501 167.056 108.26 170.919 108.26C174.786 108.26 176.973 106.245 177.948 105.358V107.811H181.85V93.1631C181.85 88.402 178.411 85.9378 173.201 85.9378Z" fill="#858E97"></path>
</g>
<mask id="mask2_5467_41289" style="mask-type:luminance" maskUnits="userSpaceOnUse" x="39" y="77" width="216" height="32">
<path d="M39 77V108.264H254.348V77H39Z" fill="white"></path>
</mask>
<g mask="url(#mask2_5467_41289)">
<path d="M253.848 84.5257C253.848 83.8611 253.775 83.0432 253.643 82.3565C253.322 82.8312 253.095 83.4155 252.993 83.956H252.687C252.591 83.4155 252.365 82.8238 252.043 82.3565C251.905 83.0357 251.839 83.8536 251.839 84.5257H251.328C251.328 83.6858 251.43 82.6925 251.642 81.8672H252.095C252.372 82.1958 252.665 82.7288 252.84 83.2185C253.015 82.7288 253.307 82.1886 253.585 81.8672H254.045C254.249 82.6925 254.351 83.6929 254.351 84.5257H253.848ZM249.195 81.8672H251.167V82.2761H250.437V84.5257H249.926V82.2761H249.195V81.8672Z" fill="#858E97"></path>
</g>
</g>
</g>
<defs>
<clipPath id="clip0_5467_41289">
<rect width="215.348" height="31.2637" fill="white" transform="translate(39 77)"></rect>
</clipPath>
</defs>
</svg>
