<svg width="290" height="192" viewBox="0 0 290 192" fill="none" xmlns="http://www.w3.org/2000/svg">
<g clip-path="url(#clip0_5467_41421)">
<path d="M176.534 94.038C170.554 92.1204 167.953 90.4298 168.399 87.6469C168.828 84.8865 171.822 85.0508 174.729 85.2765C177.602 85.5173 179.944 86.1557 181.652 86.7163C181.683 86.7389 181.783 86.7113 181.803 86.6134C181.955 85.6026 182.505 82.9225 182.654 82.0045C182.676 81.8904 182.568 81.8339 182.512 81.8201C179.014 80.8732 175.82 80.2713 172.001 80.3415C164.849 80.4656 161.524 83.3464 161.118 89.3613C160.878 92.8716 163.31 96.7519 168.363 98.4249C173.416 100.098 177.021 101.042 176.497 104.156C176.034 106.795 172.923 107.094 169.551 106.899C166.597 106.719 164.098 106.015 162.234 105.449C162.1 105.409 162.018 105.476 161.987 105.599C161.848 106.682 161.455 109.45 161.321 110.426C161.316 110.556 161.426 110.662 161.483 110.674C163.814 111.232 167.941 112.016 173.017 112.016C179.881 112.016 183.441 109.073 183.841 103.436C184.151 99.0633 182.092 95.8276 176.534 94.038Z" fill="#858E97"></path>
<path d="M145.585 94.038C139.601 92.1204 137.008 90.4298 137.452 87.6469C137.883 84.8865 140.874 85.0508 143.772 85.2765C146.647 85.5173 148.99 86.1557 150.692 86.7163C150.74 86.7389 150.812 86.7113 150.833 86.6134C151.008 85.6026 151.543 82.9225 151.7 82.0045C151.707 81.8904 151.622 81.8339 151.561 81.8201C148.058 80.8732 144.865 80.2713 141.052 80.3415C133.899 80.4656 130.576 83.3464 130.156 89.3613C129.92 92.8729 132.355 96.7557 137.398 98.4287C142.444 100.102 146.049 101.045 145.542 104.156C145.082 106.796 141.973 107.094 138.595 106.9C135.628 106.722 133.145 106.014 131.269 105.451C131.148 105.411 131.058 105.477 131.033 105.597C130.895 106.685 130.5 109.451 130.368 110.43C130.364 110.557 130.462 110.665 130.524 110.675C132.851 111.233 137.004 112.017 142.051 112.017C148.921 112.017 152.472 109.074 152.876 103.435C153.197 99.0633 151.137 95.8276 145.585 94.038Z" fill="#858E97"></path>
<path d="M86.5435 81.0352H65.8125C65.6896 81.0352 65.6094 81.1292 65.6094 81.2295V111.293C65.6094 111.403 65.6896 111.493 65.8125 111.493H72.7003C72.8106 111.493 72.8947 111.403 72.8947 111.293V100.042C72.8947 99.9388 72.985 99.841 73.0978 99.841H85.0435C85.1589 99.841 85.2492 99.7607 85.2492 99.6529V95.0025C85.2492 94.8909 85.1589 94.7956 85.0435 94.7956H73.0978C72.985 94.7956 72.8947 94.7078 72.8947 94.5924V86.2837C72.8947 86.1771 72.985 86.0831 73.0978 86.0831H86.7191C86.8307 86.0831 86.9147 85.9965 86.9147 85.8862L86.7567 81.2308C86.7416 81.1305 86.6438 81.0352 86.5435 81.0352Z" fill="#858E97"></path>
<path d="M200.705 81.0117H193.599C193.474 81.0117 193.398 81.097 193.398 81.2074V111.295C193.398 111.401 193.475 111.482 193.599 111.482H200.705C200.818 111.482 200.898 111.401 200.898 111.295V81.2074C200.898 81.097 200.815 81.0117 200.705 81.0117Z" fill="#858E97"></path>
<path d="M231.444 106.356H219.661C219.554 106.356 219.463 106.263 219.463 106.16L219.461 81.2605C219.461 81.1364 219.378 81.0586 219.26 81.0586H212.164C212.056 81.0586 211.961 81.1364 211.961 81.2605V111.298C211.961 111.404 212.056 111.483 212.164 111.483H231.209C231.32 111.483 231.415 111.404 231.42 111.298L231.648 106.568C231.646 106.445 231.567 106.356 231.444 106.356Z" fill="#858E97"></path>
<path d="M108.32 80.3672C98.9943 80.3672 93.9062 86.4849 93.9062 96.3487C93.9062 106.202 98.9968 112.324 108.32 112.324C117.642 112.324 122.726 106.202 122.726 96.3487C122.726 86.3382 117.774 80.3672 108.32 80.3672ZM108.32 107.284C101.987 107.284 101.11 102.025 101.11 96.3487C101.11 90.68 101.987 85.4201 108.32 85.4201C114.646 85.4201 115.516 90.6775 115.516 96.3487C115.516 102.024 114.646 107.284 108.32 107.284Z" fill="#858E97"></path>
</g>
<defs>
<clipPath id="clip0_5467_41421">
<rect width="166.039" height="31.9894" fill="white" transform="translate(63.9609 80.3398)"></rect>
</clipPath>
</defs>
</svg>
