<svg width="175" height="120" viewBox="0 0 175 120" fill="none" xmlns="http://www.w3.org/2000/svg">
  <rect width="175" height="120" fill="#17191F"></rect>
  <g clip-path="url(#clip0_5111_30937)">
    <path d="M124.081 49.0218C124.477 49.0218 124.846 49.1068 125.157 49.3052C125.865 49.6735 126.317 50.4405 126.317 51.2925V57.6814H132.491C133.736 57.6814 134.727 58.6751 134.727 59.9238C134.727 61.1724 133.736 62.1661 132.491 62.1661H126.317V68.2434C126.317 69.492 125.326 70.4857 124.081 70.4857C123.827 70.4857 106.893 70.4857 106.893 70.4857C105.647 70.4857 104.656 69.492 104.656 68.2434V59.8104C104.713 58.6184 105.704 57.6531 106.893 57.6531H121.843V53.5065H104.598L96.4143 68.7554C96.273 69.4374 95.8472 70.0324 95.1973 70.346C94.8865 70.4877 94.5454 70.5727 94.2346 70.5727C93.4698 70.5727 92.7049 70.176 92.3093 69.4657C92.2245 69.3524 92.168 69.2107 92.1115 69.0691L85.6554 56.3478L79.1146 68.7857C78.832 69.4394 78.4062 70.0344 77.7543 70.3764C77.4435 70.5181 77.1024 70.6031 76.7916 70.6031C76.0268 70.6031 75.2619 70.2064 74.8663 69.4961C74.7816 69.3827 74.725 69.2411 74.6685 69.0994L66.7674 53.5672H53.5707V57.7138H64.2467C65.4919 57.7138 66.4829 58.7075 66.4829 59.9561C66.4829 61.2048 65.4919 62.1984 64.2467 62.1984H53.5707V68.3891C53.5707 69.6377 52.5797 70.6314 51.3345 70.6314C50.0893 70.6314 49.0984 69.6377 49.0984 68.3891V62.1984H42.8118C41.5666 62.1984 40.5757 61.2048 40.5757 59.9561C40.5757 58.7075 41.5666 57.7138 42.8118 57.7138H48.9854V51.3249C48.9854 50.4729 49.4677 49.7342 50.1458 49.3376C50.4566 49.1676 50.826 49.0542 51.2215 49.0542H67.9561C68.3234 49.0542 68.6645 49.1392 68.9753 49.3092C69.4576 49.5075 69.8532 49.8779 70.0792 50.3879L76.7049 63.4208L83.3305 50.9829C83.6696 50.3009 83.8411 49.6775 84.5757 49.3355C84.8865 49.1939 85.2276 49.1089 85.5384 49.1089C86.1055 49.1089 86.6423 49.3072 87.0399 49.7059C87.4354 50.0175 87.6352 50.2462 87.9178 50.7845L94.1761 63.4208L101.199 50.3595C101.369 50.0479 101.623 49.7909 101.936 49.5925C102.332 49.2809 102.814 49.0805 103.381 49.0805H124.081M109.046 65.9748H121.845V62.1701H109.046V65.9748ZM124.081 44.4219H103.381C101.879 44.4219 100.408 44.9339 99.2175 45.8425C98.3961 46.4112 97.716 47.1762 97.2356 48.0282L97.2074 48.0849L97.1791 48.1415L94.3194 53.4802C94.3194 53.4802 91.0056 46.9495 90.0147 46.1542C88.7695 45.0755 87.1832 44.4785 85.5404 44.4785C84.5212 44.4785 83.502 44.7052 82.5676 45.1605C80.7836 46.0125 79.7927 47.6032 78.9713 49.4489L76.8199 53.4802L74.1862 48.3115C73.5061 46.9192 72.3456 45.7839 70.9289 45.1322C69.9945 44.6769 68.9753 44.4502 67.9561 44.4502H51.2215C50.0893 44.4502 48.9571 44.7335 47.9642 45.2739C45.7563 46.4659 44.3961 48.7952 44.3961 51.2945V53.0835H42.8098C39.0439 53.0835 35.9844 56.1495 35.9844 59.9278C35.9844 63.7061 39.0419 66.7721 42.8098 66.7721H44.3961V68.3628C44.3961 72.1391 47.4536 75.2071 51.2215 75.2071C54.9894 75.2071 58.0469 72.1411 58.0469 68.3628V66.7721H64.1075C65.4092 66.7721 66.6564 66.4038 67.7039 65.7501L70.3941 71.0321C70.5353 71.3438 70.6766 71.6291 70.8482 71.9124C72.0934 73.9564 74.3033 75.2071 76.6806 75.2071C77.6998 75.2071 78.719 74.9804 79.6534 74.5251C81.3244 73.7297 82.7674 72.3678 83.5041 70.6354L85.4576 66.2905L87.8936 71.0604C88.0348 71.3721 88.1761 71.6574 88.3456 71.9408C89.5908 73.9847 91.8007 75.2354 94.1781 75.2354C95.1973 75.2354 96.2165 75.0088 97.1509 74.5534C98.7089 73.7864 99.9259 72.4528 100.549 70.8621C101.569 73.3614 104.033 75.1221 106.893 75.1221H124.081C127.847 75.1221 130.907 72.1694 130.907 68.3931V66.8025H132.493C136.259 66.8025 139.318 63.7365 139.318 59.9582C139.318 56.1819 136.261 53.1139 132.493 53.1139H130.907V51.3249C130.907 48.7972 129.548 46.4982 127.339 45.3042C126.348 44.7052 125.213 44.4219 124.081 44.4219Z" fill="white"></path>
  </g>
</svg>