<svg width="290" height="192" viewBox="0 0 290 192" fill="none" xmlns="http://www.w3.org/2000/svg">
<g clip-path="url(#clip0_5467_41405)">
<path d="M132.381 108.385L124.174 85.5636C124.066 85.2396 123.922 84.8437 123.922 84.4477C123.922 83.4758 124.75 82.5039 125.974 82.5039C127.018 82.5039 127.701 83.1878 128.025 84.1597L134.829 103.85L141.668 84.1237C141.992 83.1878 142.604 82.5039 143.648 82.5039H143.864C144.98 82.5039 145.628 83.1878 145.952 84.1237L152.755 103.85L159.666 84.0877C159.918 83.2598 160.494 82.5039 161.61 82.5039C162.762 82.5039 163.59 83.4038 163.59 84.3757C163.59 84.7357 163.446 85.1676 163.338 85.4916L155.095 108.385C154.663 109.573 153.835 110.221 152.899 110.221H152.755C151.711 110.221 150.919 109.609 150.559 108.385L143.828 88.9832L137.025 108.385C136.665 109.573 135.873 110.221 134.829 110.221H134.721C133.641 110.185 132.777 109.573 132.381 108.385Z" fill="#BBC4D2"></path>
<path d="M192.13 84.5205C192.13 83.4047 193.03 82.4688 194.11 82.4688C195.261 82.4688 196.161 83.3687 196.161 84.5205V89.1641C198.141 84.6645 202.569 82.5407 205.484 82.5407C206.708 82.5407 207.464 83.4407 207.464 84.5925C207.464 85.7084 206.744 86.4643 205.664 86.6443C200.445 87.2563 196.125 91.2159 196.125 98.9911V108.17C196.125 109.286 195.297 110.222 194.146 110.222C192.994 110.222 192.094 109.322 192.094 108.17L192.13 84.5205Z" fill="#BBC4D2"></path>
<path d="M220.461 110.473C213.189 110.473 207.25 104.822 207.25 96.5425V96.4345C207.25 88.7313 212.649 82.5039 219.957 82.5039C227.804 82.5039 232.267 88.9832 232.267 96.0745C232.267 97.1544 231.404 97.9463 230.432 97.9463H211.282C211.858 103.742 215.889 107.017 220.605 107.017C223.88 107.017 226.292 105.722 228.236 103.922C228.56 103.67 228.92 103.454 229.352 103.454C230.324 103.454 231.08 104.246 231.08 105.182C231.08 105.65 230.864 106.118 230.468 106.477C227.948 108.889 224.996 110.473 220.461 110.473ZM228.308 94.9946C227.912 90.1351 225.14 85.8876 219.849 85.8876C215.241 85.8876 211.75 89.7752 211.246 94.9946H228.308Z" fill="#BBC4D2"></path>
<path d="M163.703 102.119V102.011C163.703 96.324 168.383 93.3003 175.222 93.3003C178.678 93.3003 181.125 93.7682 183.537 94.4522V93.5163C183.537 88.6568 180.549 86.173 175.51 86.173C172.81 86.173 171.226 86.533 169.247 87.3969C168.995 87.5049 168.743 87.5409 168.527 87.5409C167.591 87.5409 166.763 86.749 166.763 85.813C166.763 84.9851 167.123 84.4812 167.879 84.1572C170.542 83.0053 172.522 82.6094 175.978 82.6094C179.793 82.6094 182.709 83.5813 184.689 85.5971C186.525 87.4329 187.461 90.0246 187.461 93.4803V108.383C187.461 109.535 186.633 110.363 185.517 110.363C184.365 110.363 183.609 109.535 183.609 108.491V105.935C181.737 108.383 178.606 110.579 173.854 110.579C168.779 110.543 163.703 107.663 163.703 102.119ZM183.573 100.032V97.4399C181.593 96.8639 178.93 96.288 175.654 96.288C170.614 96.288 167.771 98.4838 167.771 101.867V101.975C167.771 105.359 170.902 107.339 174.538 107.339C179.506 107.339 183.573 104.315 183.573 100.032Z" fill="#BBC4D2"></path>
<path d="M59.3882 84.2686C58.4883 82.3248 56.3285 81.4609 54.2767 82.3608C52.2249 83.2607 51.469 85.5285 52.4049 87.4723L60.9721 106.082C62.3039 108.998 63.7438 110.51 66.4075 110.51C69.2512 110.51 70.5111 108.854 71.843 106.082C71.843 106.082 79.2942 89.812 79.4022 89.6321C79.4742 89.4521 79.7262 88.9481 80.4821 88.9481C81.13 88.9481 81.67 89.4521 81.67 90.136V106.046C81.67 108.494 83.0378 110.51 85.6296 110.51C88.2573 110.51 89.6612 108.494 89.6612 106.046V93.0157C89.6612 90.496 91.461 88.8761 93.9087 88.8761C96.3565 88.8761 97.9763 90.568 97.9763 93.0157V106.046C97.9763 108.494 99.3442 110.51 101.936 110.51C104.564 110.51 105.967 108.494 105.967 106.046V93.0157C105.967 90.496 107.767 88.8761 110.215 88.8761C112.663 88.8761 114.283 90.568 114.283 93.0157V106.046C114.283 108.494 115.651 110.51 118.242 110.51C120.87 110.51 122.274 108.494 122.274 106.046V91.2159C122.274 85.7805 117.882 81.9648 112.627 81.9648C107.371 81.9648 104.06 85.6005 104.06 85.6005C102.296 83.3327 99.8841 81.9648 95.8165 81.9648C91.497 81.9648 87.7173 85.6005 87.7173 85.6005C85.9535 83.3327 82.9658 81.9648 80.5181 81.9648C76.7025 81.9648 73.6788 83.6567 71.807 87.8682L66.3355 100.755L59.3882 84.2686Z" fill="#BBC4D2"></path>
<path d="M232.602 85.9227C232.602 84.0869 234.077 82.5391 235.949 82.5391C237.821 82.5391 239.297 84.0509 239.297 85.8867C239.297 87.7225 237.821 89.2344 235.949 89.2344C234.041 89.2344 232.602 87.7225 232.602 85.9227ZM238.613 85.8867C238.613 84.3749 237.461 83.151 235.913 83.151C234.401 83.151 233.214 84.4109 233.214 85.8867C233.214 87.3626 234.365 88.6224 235.913 88.6224C237.461 88.6224 238.613 87.3626 238.613 85.8867Z" fill="#BBC4D2"></path>
<path d="M234.688 84.5201C234.688 84.3041 234.831 84.1602 235.047 84.1602H236.163C236.595 84.1602 236.919 84.2681 237.099 84.4841C237.279 84.6641 237.387 84.9161 237.387 85.204C237.387 85.708 237.135 86.032 236.739 86.176L237.243 86.7879C237.315 86.8599 237.351 86.9679 237.351 87.0759C237.351 87.2558 237.171 87.3998 237.027 87.3998C236.883 87.3998 236.775 87.3278 236.667 87.2198L235.983 86.3559H235.407V87.0759C235.407 87.2918 235.263 87.4358 235.047 87.4358C234.831 87.4358 234.688 87.2918 234.688 87.0759V84.5201ZM236.127 85.744C236.487 85.744 236.667 85.564 236.667 85.276C236.667 84.9881 236.451 84.8081 236.127 84.8081H235.407V85.744H236.127Z" fill="#BBC4D2"></path>
</g>
<defs>
<clipPath id="clip0_5467_41405">
<rect width="187.253" height="28.5451" fill="white" transform="translate(52 82)"></rect>
</clipPath>
</defs>
</svg>
