<svg width="290" height="192" viewBox="0 0 290 192" fill="none" xmlns="http://www.w3.org/2000/svg">
<path fill-rule="evenodd" clip-rule="evenodd" d="M73.3681 110.422C70.8663 108.86 69.0223 103.467 69.0223 97.0581C69.0223 96.823 69.0233 96.5908 69.0292 96.3596L69.0312 96.3626C62.0711 95.2721 57.0426 92.2845 56.9132 88.7502L56.8933 88.7919C55.1906 90.9024 54.2183 93.3423 54.2183 95.9419C54.2183 103.592 62.6403 109.86 73.3233 110.414L73.3681 110.422ZM51 96.4995C51 87.9406 61.684 81 74.8628 81C88.0427 81 98.7267 87.9406 98.7267 96.4995C98.7267 105.059 88.0427 112 74.8628 112C61.684 112 51 105.059 51 96.4995ZM74.8638 83.2365C77.4085 83.2365 79.5729 87.0853 80.375 92.4552L80.377 92.4463C85.3279 91.6783 88.793 89.9062 88.793 87.8434C88.793 85.076 82.5564 82.8346 74.8638 82.8346C67.1723 82.8346 60.9356 85.076 60.9356 87.8434C60.9356 89.9062 64.4008 91.6773 69.3507 92.4463L69.3537 92.4552C70.1558 87.0853 72.3202 83.2365 74.8638 83.2365ZM76.4043 110.413C87.0873 109.859 95.5103 103.591 95.5103 95.9409C95.5103 93.3413 94.5371 90.9014 92.8354 88.7909L92.8145 88.7493C92.6861 92.2836 87.6576 95.2711 80.6964 96.3616L80.6994 96.3586C80.7044 96.5898 80.7064 96.822 80.7064 97.0571C80.7064 103.466 78.8614 108.859 76.3606 110.421L76.4043 110.413ZM74.8638 92.8531C75.9683 92.8544 77.0724 92.8074 78.1727 92.7122L78.1717 92.7132C77.6443 89.2722 76.3625 86.8422 74.8648 86.8422C73.3671 86.8422 72.0864 89.2722 71.5579 92.7132L71.5569 92.7122C72.6567 92.8069 73.76 92.8539 74.8638 92.8531ZM74.8638 105.599C76.7795 105.599 78.3429 101.624 78.4255 96.6404L78.4355 96.6434C76.0597 96.8616 73.6689 96.8616 71.2932 96.6434L71.3032 96.6404C71.3858 101.624 72.9482 105.599 74.8638 105.599ZM172.769 96.4995C172.769 89.9578 178.089 84.6534 184.65 84.6534C191.214 84.6534 196.534 89.9578 196.534 96.4995C196.534 103.043 191.213 108.346 184.65 108.346C178.089 108.346 172.769 103.043 172.769 96.4995ZM184.65 104.002C188.315 104.002 191.286 100.642 191.286 96.4985C191.286 92.356 188.315 88.9963 184.65 88.9963C180.986 88.9963 178.017 92.356 178.017 96.4985C178.017 100.643 180.987 104.002 184.65 104.002ZM210.016 89.5887V107.808H205.008V89.5887H205.026H198.025V85.47H216.999V89.5887H210.016ZM223.055 102.782L223.052 102.787L221.131 107.809H215.282L224.526 85.47H230.758L240 107.809H234.153L232.233 102.787L232.227 102.782H223.055ZM227.642 99.0118H230.793L230.791 99.0128L227.663 90.8369H227.62L224.492 99.0128L224.491 99.0118H227.642ZM117.732 89.5887V107.808H112.726V89.5887H112.743H105.742V85.47H124.716V89.5887H117.732ZM125.997 96.4995C125.997 89.9578 131.317 84.6534 137.88 84.6534C144.442 84.6534 149.762 89.9578 149.762 96.4995C149.762 103.043 144.442 108.346 137.88 108.346C131.317 108.346 125.997 103.043 125.997 96.4995ZM137.88 104.002C141.543 104.002 144.515 100.642 144.515 96.4985C144.515 92.356 141.543 88.9963 137.88 88.9963C134.216 88.9963 131.245 92.356 131.245 96.4985C131.245 100.643 134.216 104.002 137.88 104.002ZM161.264 107.808H163.803V99.3263L172.537 85.47H166.691L161.264 94.8594L155.84 85.47H149.993L158.727 99.3263V107.808H161.264Z" fill="#BBC4D2"></path>
</svg>
