<svg width="290" height="192" viewBox="0 0 290 192" fill="none" xmlns="http://www.w3.org/2000/svg">
<g clip-path="url(#clip0_5467_41241)">
<path d="M122.726 110.743C116.652 110.743 111.014 108.929 107.251 105.566C104.407 103.025 103.041 99.5735 103.041 96.0211C103.041 92.512 104.466 89.0368 107.25 86.5093C110.746 83.3377 116.916 81.3516 122.726 81.3516C129.156 81.3516 134.302 82.964 138.236 86.518C141.034 89.0469 142.388 92.5067 142.388 96.0215C142.388 99.4283 140.952 103.056 138.236 105.566C134.572 108.951 128.816 110.743 122.726 110.743V106.866C125.95 106.866 128.941 105.758 131.029 103.689C133.103 101.634 134.069 99.1082 134.069 96.0211C134.069 93.0638 133.027 90.2989 131.029 88.3379C128.968 86.3172 125.907 85.1801 122.726 85.1801C119.536 85.1801 116.472 86.3054 114.41 88.3379C112.423 90.2983 111.378 93.0712 111.378 96.0211C111.378 98.962 112.435 101.733 114.41 103.689C116.474 105.733 119.527 106.867 122.726 106.867V110.743V110.743ZM78.3324 81.3656C75.0834 81.3656 71.3922 81.9707 68.256 83.3652C65.3615 84.6511 62.9922 86.7308 62.9922 90.1786C62.9908 93.2837 64.9729 95.1023 64.9191 95.052C65.7621 95.8247 67.1193 97.1404 70.6677 97.9131C72.2535 98.2584 75.644 98.7887 79.0203 99.14C82.3717 99.492 85.6699 99.8266 87.0133 100.165C88.0806 100.436 89.8735 100.804 89.8735 102.807C89.8735 104.801 87.9846 105.41 87.6564 105.542C87.3284 105.671 85.0625 106.706 80.9892 106.706C77.9819 106.706 74.3666 105.806 73.0488 105.337C71.5296 104.798 69.9361 104.086 68.4496 102.278C68.0799 101.83 67.4968 100.598 67.4968 99.377H63.8103V109.662H67.9079V108.272C67.9079 108.114 68.1065 107.463 68.7944 107.773C69.6502 108.16 72.1626 109.156 74.7894 109.702C76.9432 110.15 78.3321 110.472 81.0098 110.472C85.3787 110.472 87.7257 109.763 89.3482 109.302C90.8768 108.866 92.7656 108.084 94.2999 106.866C95.1309 106.207 96.953 104.518 96.953 101.453C96.953 98.5115 95.3672 96.6855 94.8093 96.1301C94.0494 95.3732 93.1212 94.7865 92.1539 94.3343C91.3111 93.9394 89.9812 93.4651 88.893 93.1999C86.781 92.6837 82.0054 92.0468 79.7216 91.8088C77.3267 91.5597 73.1723 91.2171 71.5131 90.7059C71.0101 90.5507 69.9846 90.0643 69.9846 88.8789C69.9846 88.0359 70.4536 87.3212 71.3805 86.7436C72.8518 85.8257 75.8238 85.2552 78.9216 85.2552C82.5841 85.2418 85.6857 86.0755 87.6587 86.9538C88.3297 87.2521 89.1149 87.6805 89.7384 88.1874C90.4421 88.7586 91.43 89.9456 91.7872 91.6013H95.0969V82.6489H91.4014V83.6894C91.4014 84.0253 91.0529 84.4617 90.394 84.101C88.7402 83.2372 84.0642 81.3734 78.3318 81.3656H78.3324ZM159.318 82.9925L177.345 99.1903L177.159 88.2846C177.141 86.8545 176.877 86.2575 175.323 86.2575H171.934V82.9951H187.347V86.2575H184.041C182.457 86.2575 182.357 86.762 182.337 88.2846L182.617 109.123H177.338L156.575 90.6724L156.579 103.767C156.597 105.19 156.664 105.861 158.137 105.861H161.839V109.122H146.702V105.861H150.24C151.562 105.861 151.509 104.606 151.509 103.693V88.4086C151.509 87.4221 151.37 86.2599 149.295 86.2599H146.424V82.9925H159.318ZM204.961 105.854C205.105 105.854 205.748 105.836 205.873 105.798C206.229 105.688 206.47 105.435 206.582 105.171C206.629 105.061 206.653 104.571 206.653 104.465L206.655 99.3093C206.655 99.1853 206.646 99.1316 206.435 98.8554C206.203 98.5537 196.993 88.1619 196.571 87.7043C196.047 87.1361 195.128 86.2578 193.732 86.2578H190.529V82.9941H208.605V86.2538H206.426C205.922 86.2538 205.587 86.7298 206.017 87.2588C206.017 87.2588 212.099 94.5019 212.156 94.5777C212.213 94.6548 212.261 94.6732 212.339 94.6028C212.415 94.5307 218.573 87.3252 218.621 87.2682C218.914 86.9189 218.716 86.2575 218.084 86.2575H215.849V82.9941H230.663V86.2575H227.354C226.153 86.2575 225.665 86.4788 224.761 87.4955C224.348 87.9608 215.04 98.5393 214.787 98.8259C214.654 98.9758 214.665 99.1846 214.665 99.3086V104.464C214.665 104.568 214.689 105.058 214.736 105.168C214.848 105.433 215.091 105.686 215.446 105.795C215.571 105.833 216.205 105.852 216.35 105.852H219.735V109.115H201.753V105.852L204.961 105.854H204.961Z" fill="#858E97"></path>
</g>
<defs>
<clipPath id="clip0_5467_41241">
<rect width="168.345" height="30.0615" fill="white" transform="translate(62.6562 81.0117)"></rect>
</clipPath>
</defs>
</svg>
