<svg width="290" height="192" viewBox="0 0 290 192" fill="none" xmlns="http://www.w3.org/2000/svg">
<g clip-path="url(#clip0_5467_41501)">
<mask id="mask0_5467_41501" style="mask-type:luminance" maskUnits="userSpaceOnUse" x="38" y="67" width="216" height="58">
<path d="M38.7344 67.7257H253.667V124.82H38.7344V67.7257Z" fill="white"></path>
</mask>
<g mask="url(#mask0_5467_41501)">
<path d="M229.956 94.5391V98.4249H232.687V102.28C232.696 102.625 232.677 102.996 232.618 103.294C232.509 104.013 231.826 105.237 229.887 105.237C227.961 105.237 227.29 104.013 227.173 103.294C227.125 102.996 227.104 102.625 227.104 102.28V90.1032C227.104 89.6724 227.133 89.201 227.224 88.8442C227.356 88.1952 227.932 86.9153 229.873 86.9153C231.911 86.9153 232.42 88.2646 232.537 88.8442C232.613 89.228 232.618 89.8719 232.618 89.8719V91.3505H239.328V90.4764C239.328 90.4764 239.358 89.5643 239.277 88.7131C238.772 83.7151 234.654 82.1338 229.932 82.1338C225.202 82.1338 221.167 83.7298 220.579 88.7131C220.526 89.1688 220.445 89.9886 220.445 90.4764V101.678C220.445 102.166 220.461 102.544 220.551 103.435C220.989 108.296 225.202 110.019 229.913 110.019C234.654 110.019 238.838 108.296 239.283 103.435C239.362 102.544 239.37 102.166 239.381 101.678V94.5391H229.956ZM183.69 82.8506H176.951V102.561C176.962 102.905 176.951 103.291 176.892 103.573C176.751 104.235 176.191 105.508 174.332 105.508C172.497 105.508 171.921 104.235 171.791 103.573C171.724 103.291 171.715 102.905 171.724 102.561V82.8506H164.987V101.949C164.979 102.442 165.017 103.448 165.047 103.711C165.511 108.688 169.434 110.304 174.332 110.304C179.239 110.304 183.159 108.688 183.633 103.711C183.67 103.448 183.719 102.442 183.69 101.949V82.8506ZM121.776 82.8506L118.415 103.677L115.056 82.8506H104.186L103.61 109.494H110.269L110.449 84.8294L115.031 109.494H121.787L126.373 84.8294L126.554 109.494H133.229L132.633 82.8506H121.776ZM81.5324 82.8506L76.597 109.494H83.7941L87.5133 84.8294L91.1432 109.494H98.2904L93.3755 82.8506H81.5324ZM207.239 104.302L200.965 82.8506H191.077V109.216H197.618L197.238 87.0788L203.977 109.216H213.459V82.8506H206.876L207.239 104.302ZM146.739 89.7847C146.621 89.2585 146.655 88.6994 146.716 88.4073C146.907 87.5544 147.48 86.6241 149.131 86.6241C150.67 86.6241 151.572 87.5835 151.572 89.0231V90.6523H158.141V88.7952C158.141 83.0545 152.994 82.1526 149.268 82.1526C144.574 82.1526 140.742 83.6997 140.042 88.0193C139.857 89.1948 139.811 90.2383 140.105 91.5698C141.247 96.9558 150.623 98.5183 151.984 101.924C152.224 102.57 152.155 103.392 152.033 103.877C151.829 104.764 151.233 105.655 149.465 105.655C147.807 105.655 146.809 104.702 146.809 103.266L146.807 100.709H139.737V102.741C139.737 108.631 144.35 110.408 149.319 110.408C154.077 110.408 158.007 108.782 158.638 104.374C158.939 102.096 158.712 100.613 158.591 100.054C157.489 94.5299 147.496 92.8682 146.739 89.7847ZM60.0897 89.7193C59.9607 89.1822 59.9908 88.6153 60.0627 88.3197C60.2447 87.4709 60.8211 86.5243 62.5013 86.5243C64.0596 86.5243 64.9772 87.4928 64.9772 88.9441V90.5931H71.6229V88.7213C71.6229 82.9255 66.3973 82.0018 62.6303 82.0018C57.8977 82.0018 54.0307 83.5728 53.3232 87.9235C53.1296 89.1179 53.0964 90.1685 53.3763 91.5148C54.5299 96.962 63.9991 98.5371 65.3768 101.984C65.6348 102.625 65.5568 103.448 65.4288 103.951C65.2102 104.847 64.6091 105.751 62.8266 105.751C61.1622 105.751 60.1667 104.781 60.1667 103.325L60.1574 100.761H53.0078V102.799C53.0078 108.756 57.6863 110.547 62.6936 110.547C67.5075 110.547 71.4607 108.906 72.1056 104.448C72.4262 102.149 72.1857 100.653 72.0776 100.086C70.953 94.4943 60.8482 92.8381 60.0897 89.7193Z" fill="#858E97"></path>
</g>
</g>
<defs>
<clipPath id="clip0_5467_41501">
<rect width="186.373" height="28.5451" fill="white" transform="translate(53 82)"></rect>
</clipPath>
</defs>
</svg>
