<svg role="presentation" width="24" height="24" viewBox="0 0 24 24" fill="none" xmlns="http://www.w3.org/2000/svg">
  <g clip-path="url(#clip0_4206_13219)">
    <path d="M22.383 5.96745C21.6196 6.30514 20.81 6.52692 19.981 6.62545C20.8548 6.10288 21.5087 5.28046 21.821 4.31145C21.001 4.79945 20.102 5.14145 19.165 5.32645C18.5356 4.65303 17.7014 4.20641 16.792 4.05603C15.8826 3.90566 14.9489 4.05994 14.1363 4.4949C13.3236 4.92987 12.6774 5.62113 12.2981 6.46124C11.9188 7.30135 11.8277 8.24323 12.039 9.14045C10.3761 9.0571 8.74933 8.62497 7.26429 7.87211C5.77924 7.11925 4.46913 6.0625 3.419 4.77045C3.04729 5.4089 2.85196 6.13468 2.853 6.87345C2.853 8.32345 3.591 9.60445 4.713 10.3545C4.04901 10.3335 3.39963 10.1542 2.819 9.83145V9.88345C2.8192 10.8492 3.15337 11.7851 3.76485 12.5325C4.37633 13.28 5.22748 13.7929 6.174 13.9845C5.55761 14.1515 4.91131 14.1761 4.284 14.0564C4.55087 14.8877 5.07101 15.6146 5.77159 16.1356C6.47218 16.6565 7.31813 16.9452 8.191 16.9614C7.32348 17.6428 6.33018 18.1464 5.26788 18.4436C4.20558 18.7408 3.09513 18.8257 2 18.6934C3.9117 19.9229 6.1371 20.5756 8.41 20.5734C16.103 20.5734 20.31 14.2005 20.31 8.67345C20.31 8.49345 20.305 8.31145 20.297 8.13345C21.1159 7.54162 21.8226 6.80847 22.384 5.96845L22.383 5.96745Z" fill="currentColor"></path>
  </g>
  <defs>
    <clipPath id="clip0_4206_13219">
      <rect width="24" height="24" fill="currentColor"></rect>
    </clipPath>
  </defs>
</svg>