<svg width="290" height="192" viewBox="0 0 290 192" fill="none" xmlns="http://www.w3.org/2000/svg">
<path d="M144.433 56.743C131.002 56.743 119.286 59.3411 109.609 64.4648V105.427C109.609 114.046 112.851 121.253 118.981 126.274C124.673 130.94 142.277 138.628 144.434 139.562C146.479 138.672 164.292 130.865 169.893 126.274C176.02 121.256 179.262 114.046 179.262 105.427V64.4648C169.584 59.3405 157.868 56.7423 144.432 56.7423L144.433 56.743ZM164.321 64.6743C168.326 64.7267 172.259 64.9739 176.061 65.3269V105.426C176.061 113.132 173.262 119.357 167.862 123.801C163.039 127.77 148.493 134.282 144.434 136.069C140.321 134.258 125.738 127.664 121.001 123.803C115.633 119.435 112.808 113.062 112.808 105.428V81.9972C128.233 67.8628 146.964 64.4484 164.319 64.6753L164.321 64.6743ZM145.341 83.3463C142.036 83.3463 139.37 84.0843 137.175 85.5002V124.953H143.236V112.207C143.841 112.385 144.719 112.552 145.962 112.552C152.686 112.552 156.55 106.496 156.55 97.6544C156.55 88.8298 152.571 83.3463 145.341 83.3463ZM166.051 83.3463C162.065 83.4617 157.897 86.3468 157.922 91.2378C157.932 94.4583 158.826 96.8667 163.821 99.7953C166.487 101.359 167.561 102.389 167.607 104.289C167.658 106.401 166.197 107.674 163.975 107.666C162.041 107.65 159.73 106.578 158.182 105.201V110.774C160.08 111.905 162.448 112.653 164.84 112.653C170.828 112.653 173.502 108.426 173.617 104.554C173.731 101.024 172.755 98.3537 167.692 95.3811C165.432 94.0569 163.647 93.1866 163.707 90.983C163.766 88.832 165.554 88.0763 167.27 88.0917C169.387 88.1103 171.435 89.2818 172.699 90.5772V85.3144C171.633 84.4944 169.378 83.2444 166.051 83.3463ZM115.903 83.959V102.989C115.903 109.405 118.94 112.653 124.935 112.653C128.644 112.653 131.751 111.795 134.065 110.223V83.9592H128.017V106.778C127.358 107.229 126.38 107.518 125.15 107.518C122.373 107.518 121.959 104.974 121.959 103.257V83.9595L115.903 83.959ZM145.382 88.2219C148.897 88.2219 150.354 91.0262 150.354 97.8085C150.354 104.426 148.688 107.623 145.201 107.623C144.381 107.623 143.667 107.42 143.234 107.257V88.6601C143.725 88.4156 144.559 88.2219 145.382 88.2219Z" fill="#858E97"></path>
</svg>
