<svg width="175" height="120" viewBox="0 0 175 120" fill="none" xmlns="http://www.w3.org/2000/svg">
<rect width="175" height="120" fill="#17191F"></rect>
<g clip-path="url(#clip0_5111_30878)">
<path fill-rule="evenodd" clip-rule="evenodd" d="M69.316 32H42.0469V43.6065C44.721 43.4221 58.06 42.4672 58.06 41.5168C58.06 40.4642 51.3573 39.8534 51.3573 39.8534L52.8843 37.9609C52.8843 37.9609 62.6794 38.6427 62.6794 41.5877C62.6794 43.8511 55.2677 44.7619 55.2677 44.7619C55.2677 44.7619 62.7449 46.0271 62.7449 48.0069C62.7449 50.5811 55.6494 51.3228 55.6494 51.3228C55.6494 51.3228 62.9575 52.3972 62.9575 54.4151C62.9575 56.7875 55.0768 57.8783 55.0768 57.8783C55.0768 57.8783 63.1484 59.1654 63.1484 60.8997C63.1484 63.0867 55.5676 64.3411 55.5676 64.3411C55.5676 64.3411 63.2521 64.941 63.2521 67.3079C63.2521 69.8787 56.6067 70.8422 56.233 70.8943C56.3729 70.915 57.1702 71.0364 58.1877 71.2559C61.4865 71.8536 63.6696 72.9124 63.6696 74.1539V74.3339V83.8944L63.6314 83.9708C63.5831 84.1017 63.5102 84.2305 63.414 84.3567H69.316V32ZM42.0469 69.9699C44.4998 69.7882 57.8419 68.6493 57.8419 67.3734C57.8419 66.4116 49.7205 66.1227 44.914 65.9517H44.9138H44.9138C43.6702 65.9075 42.6485 65.8712 42.0469 65.8331V69.9699ZM42.0469 63.5568C44.6093 63.3775 57.8419 62.3574 57.8419 61.107C57.8419 60.1426 49.6043 59.5996 44.7615 59.2804H44.7615L44.7614 59.2804C43.6148 59.2049 42.6585 59.1418 42.0469 59.0887V63.5568ZM42.0469 56.7774C44.9171 56.6018 57.9728 55.7449 57.9728 54.546C57.9728 53.7528 52.1705 53.4144 47.3847 53.1354C45.1548 53.0053 43.1456 52.8882 42.0469 52.7438V56.7774ZM42.0469 50.3278C45.3647 50.1156 57.8419 49.2328 57.8419 47.996C57.8419 47.0194 49.4986 46.4405 44.6945 46.1071L44.6945 46.1071C43.5647 46.0287 42.6306 45.9639 42.0469 45.9107V50.3278Z" fill="white"></path>
<path d="M78.8544 74.9615H79.5306L83.9264 84.4675H83.1629L81.963 81.8279H76.3838L75.1839 84.4675H74.4531L78.8489 74.9615H78.8544ZM81.6685 81.1898L79.187 75.7251L76.6892 81.1898H81.6685ZM83.6483 75.027H84.4282L87.395 83.4259L90.1601 74.9997H90.7055L93.4651 83.4313L96.432 75.027H97.1628L93.7378 84.5384H93.1706L90.4056 76.3359L87.6405 84.5384H87.0678L83.6483 75.027ZM101.275 74.9615H101.951L106.347 84.4675H105.584L104.384 81.8279H98.8099L97.61 84.4675H96.8792L101.275 74.9615ZM104.084 81.1898L101.602 75.7251L99.1044 81.1898H104.084ZM107.738 75.027H111.708C112.864 75.027 113.797 75.3924 114.364 75.9541C114.824 76.4225 115.081 77.0536 115.079 77.7102V77.7375C115.079 79.3191 113.906 80.219 112.314 80.4372L115.428 84.473H114.539L111.534 80.5571H108.441V84.4675H107.743V75.027H107.738ZM111.626 79.9245C113.208 79.9245 114.375 79.1282 114.375 77.7648V77.7375C114.375 76.4668 113.377 75.676 111.665 75.676H108.447V79.9245H111.626ZM117.157 75.027H120.303C123.27 75.027 125.321 77.0612 125.321 79.7173V79.7445C125.321 82.406 123.27 84.4675 120.303 84.4675H117.157V75.027ZM120.303 83.824C122.932 83.824 124.59 82.0242 124.59 79.7772V79.75C124.59 77.5085 122.932 75.676 120.303 75.676H117.86V83.8185H120.303V83.824ZM126.63 83.0932L127.088 82.5642C128.124 83.524 129.084 83.9712 130.469 83.9712C131.887 83.9712 132.864 83.175 132.864 82.0951V82.0679C132.864 81.0698 132.335 80.4862 130.191 80.0554C127.922 79.5973 127.006 78.8283 127.006 77.3994V77.3721C127.006 75.9705 128.288 74.8906 130.044 74.8906C131.418 74.8906 132.324 75.2724 133.278 76.0359L132.836 76.5922C132.068 75.8874 131.059 75.5047 130.017 75.5233C128.626 75.5233 127.71 76.3195 127.71 77.3067V77.3339C127.71 78.332 128.222 78.9374 130.464 79.3955C132.645 79.8427 133.562 80.6226 133.562 82.0024V82.0297C133.562 83.5567 132.253 84.6039 130.437 84.6039C128.92 84.6039 127.764 84.1076 126.63 83.0932Z" fill="white"></path>
<path d="M76.8644 46.4771H73.5703V45.8281H80.8566V46.4771H77.5625V55.2741H76.8644V46.4771ZM82.3782 45.8281H83.0818V50.2021H89.1246V45.8281H89.8282V55.2741H89.1246V50.8456H83.0818V55.2741H82.3782V45.8281ZM92.2987 45.8281H99.0124V46.4771H92.9968V50.1857H98.407V50.8347H92.9968V54.6251H99.0833V55.2741H92.2987V45.8281Z" fill="white"></path>
<path d="M83.6473 59.9909C83.9745 61.1634 84.3017 62.336 84.6508 63.5086C85.2507 65.6083 85.3598 65.9464 85.6979 68.0571C86.0251 65.8973 86.1015 65.5265 86.5923 63.3122L87.3013 59.9909H90.001L87.2413 70.8876H84.4381C84.0945 69.6877 83.7727 68.4825 83.4182 67.2881C82.8346 65.2865 82.8019 65.2156 82.4747 63.6885C82.2354 64.882 81.9258 66.0602 81.5475 67.2172L80.5004 70.8876H77.6971L74.9375 59.9963H77.648C78.8206 65.1665 78.9461 65.7337 79.2678 68.0952C79.6714 65.9355 79.7805 65.521 80.3477 63.3613L81.2421 59.9963H83.6473V59.9909ZM101.214 67.9371C100.849 68.4825 100.489 69.0006 99.9487 69.5023C98.8661 70.4796 97.453 71.0098 95.9947 70.9858C92.886 70.9858 90.699 69.0006 90.699 65.5701C90.699 63.0395 91.9425 59.7891 96.0765 59.7891C96.6982 59.7891 98.5035 59.8491 99.8451 61.2943C101.209 62.7614 101.29 64.8066 101.334 65.9901H93.8459C93.8295 67.299 94.5713 68.597 96.2347 68.597C97.9254 68.597 98.5035 67.4953 98.8852 66.7536L101.214 67.9371ZM98.1435 64.0649C98.117 63.5197 97.912 62.9985 97.56 62.5814C97.1393 62.1882 96.5799 61.9777 96.0044 61.9961C95.4289 62.0145 94.8841 62.2603 94.4895 62.6796C94.0695 63.1432 93.9659 63.6231 93.8677 64.0649H98.1435ZM103.276 59.9909H107.486C108.631 59.9909 109.662 60.0399 110.322 60.2526C110.873 60.4044 111.357 60.7359 111.698 61.1944C112.039 61.6528 112.217 62.212 112.203 62.7832C112.203 63.3722 112.051 63.7267 112.002 63.8303C111.511 64.9429 110.464 65.1611 109.875 65.2811C110.54 65.3901 111.418 65.5265 112.018 66.2082C112.405 66.6227 112.618 67.2226 112.618 67.8444C112.61 68.4116 112.434 68.9638 112.114 69.4322C111.794 69.9007 111.344 70.2645 110.818 70.4786C110 70.8331 109.122 70.8821 107.873 70.8821H103.276V59.9909ZM105.866 62.0251V64.2939H107.917C108.533 64.2776 109.537 64.2503 109.537 63.1213C109.537 62.0742 108.626 62.0306 108.102 62.0306H105.866V62.0251ZM105.866 66.2682V68.9078H107.764C108.675 68.8915 109.858 68.8588 109.858 67.6098C109.858 66.3009 108.778 66.2846 108.222 66.2682H105.866ZM114.843 59.9909H119.053C120.193 59.9909 121.224 60.0399 121.889 60.2526C122.44 60.4044 122.925 60.7359 123.265 61.1944C123.606 61.6528 123.784 62.212 123.771 62.7832C123.771 63.3722 123.618 63.7267 123.569 63.8303C123.078 64.9429 122.031 65.1611 121.442 65.2811C122.108 65.3901 122.986 65.5265 123.586 66.2082C123.967 66.6227 124.186 67.2226 124.186 67.8444C124.186 68.6897 123.738 69.8786 122.386 70.4786C121.568 70.8331 120.69 70.8821 119.441 70.8821H114.843V59.9909ZM117.434 62.0251V64.2939H119.484C120.101 64.2776 121.104 64.2503 121.104 63.1213C121.104 62.0742 120.193 62.0306 119.67 62.0306H117.434V62.0251ZM117.434 66.2682V68.9078H119.332C120.237 68.8915 121.426 68.8588 121.426 67.6098C121.426 66.3009 120.346 66.2846 119.79 66.2682H117.434ZM124.126 59.9909H127.256L129.601 63.7267C129.737 63.4159 129.765 63.3559 130.048 62.9086L131.914 59.9909H135.011L130.894 65.7283V70.8821H128.21V65.8101L124.12 59.9909H124.126Z" fill="white"></path>
</g>
<defs>
<clipPath id="clip0_5111_30878">
<rect width="95.4419" height="55.0836" fill="white" transform="translate(40 32)"></rect>
</clipPath>
</defs>
</svg>
